<svg xmlns="http://www.w3.org/2000/svg" width="32" height="32" viewBox="0 0 32 32">
  <defs>
    <linearGradient id="grad" x1="0%" y1="0%" x2="100%" y2="100%">
      <stop offset="0%" style="stop-color:#6366f1"/>
      <stop offset="50%" style="stop-color:#a855f7"/>
      <stop offset="100%" style="stop-color:#ec4899"/>
    </linearGradient>
  </defs>
  <rect width="32" height="32" rx="6" fill="url(#grad)"/>
  <g transform="translate(5, 5)">
    <path d="M17.8 19.2L16 11l3.5-3.5C21 6 21.5 4 21 3c-1-.5-3 0-4.5 1.5L13 8 4.8 6.2c-.5-.1-.9.1-1.1.5l-.3.5c-.2.4-.1.9.3 1.1l6.7 3.8-3 3-1.6-.8c-.3-.2-.7-.1-1 .1l-.5.4c-.2.2-.3.5-.2.8l1.3 2.8 2.8 1.3c.3.1.6 0 .8-.2l.4-.5c.2-.3.3-.7.1-1l-.8-1.6 3-3 3.8 6.7c.2.4.7.5 1.1.3l.5-.3c.4-.2.6-.6.5-1.1z" fill="none" stroke="white" stroke-width="1.5" stroke-linecap="round" stroke-linejoin="round"/>
  </g>
</svg>
